<?xml version="1.0" encoding="UTF-8"?>
<svg width="16px" height="16px" viewBox="0 0 16 16" version="1.1" xmlns="http://www.w3.org/2000/svg" xmlns:xlink="http://www.w3.org/1999/xlink">
    <title>icon_bd_delete</title>
    <g id="页面-1" stroke="none" stroke-width="1" fill="none" fill-rule="evenodd">
        <g id="添加待入职" transform="translate(-865.000000, -320.000000)" fill-rule="nonzero">
            <g id="编组-10" transform="translate(479.000000, 246.000000)">
                <g id="编组-12备份-2" transform="translate(112.000000, 48.000000)">
                    <g id="icon_bd_delete" transform="translate(274.000000, 26.000000)">
                        <rect id="矩形" fill-opacity="0.01" fill="#FFFFFF" x="0" y="0" width="16" height="16"></rect>
                        <path d="M10.6,1.16666667 C10.8131016,1.16666667 10.9990783,1.30101478 11.0698102,1.49541187 L11.0928111,1.58218476 L11.421,3.49966667 L14,3.5 C14.2761424,3.5 14.5,3.72385763 14.5,4 C14.5,4.24545989 14.3231248,4.44960837 14.0898756,4.49194433 L14,4.5 L12.802,4.49966667 L12.1656293,14.3655245 C12.1505413,14.599389 11.9763461,14.7871211 11.7526563,14.8259522 L11.6666667,14.8333333 L4.33333333,14.8333333 C4.06968878,14.8333333 3.85134472,14.628622 3.83437068,14.3655245 L3.83437068,14.3655245 L3.197,4.49966667 L2,4.5 C1.72385763,4.5 1.5,4.27614237 1.5,4 C1.5,3.75454011 1.67687516,3.55039163 1.91012437,3.50805567 L2,3.5 L4.578,3.49966667 L4.90718887,1.58218476 C4.94319532,1.37214713 5.10703515,1.21154431 5.31058838,1.17467545 L5.4,1.16666667 L10.6,1.16666667 Z M11.8,4.5 L4.199,4.5 L4.802,13.833 L11.197,13.833 L11.8,4.5 Z M9.66666667,11.1666667 C9.94280904,11.1666667 10.1666667,11.3905243 10.1666667,11.6666667 C10.1666667,11.9121266 9.98979151,12.116275 9.7565423,12.158611 L9.66666667,12.1666667 L6.33333333,12.1666667 C6.05719096,12.1666667 5.83333333,11.942809 5.83333333,11.6666667 C5.83333333,11.4212068 6.01020849,11.2170583 6.2434577,11.1747223 L6.33333333,11.1666667 L9.66666667,11.1666667 Z M10.178,2.166 L5.821,2.166 L5.592,3.49966667 L10.407,3.49966667 L10.178,2.166 Z" id="形状结合" fill="#71737B"></path>
                    </g>
                </g>
            </g>
        </g>
    </g>
</svg>