<?xml version="1.0" encoding="UTF-8"?>
<svg width="16px" height="16px" viewBox="0 0 16 16" version="1.1" xmlns="http://www.w3.org/2000/svg"
     xmlns:xlink="http://www.w3.org/1999/xlink">
    <g id="页面-1" stroke="none" stroke-width="1">
        <g id="添加待入职" transform="translate(-629.000000, -256.000000)">
            <g id="编组-10" transform="translate(479.000000, 246.000000)">
                <g id="icon_bd_upload" transform="translate(150.000000, 10.000000)">
                    <rect id="矩形" fill-opacity="0.01" x="0" y="0" width="16" height="16"></rect>
                    <g id="编组">
                        <g transform="translate(1.000000, 1.000000)" id="形状结合">
                            <path d="M13,6.33333333 C13.334718,6.33333333 13.611822,6.5800084 13.6594383,6.90148489 L13.6666667,7 L13.6666667,13 C13.6666667,13.334718 13.4199916,13.611822 13.0985151,13.6594383 L13,13.6666667 L1,13.6666667 C0.66528197,13.6666667 0.388177989,13.4199916 0.340561712,13.0985151 L0.333333333,13 L0.333333333,7.00276667 C0.333333333,6.63457683 0.631810167,6.3361 1,6.3361 C1.33471803,6.3361 1.61182201,6.58277507 1.65943829,6.90425155 L1.66666667,7.00276667 L1.666,12.333 L12.333,12.333 L12.3333333,7 C12.3333333,6.66528197 12.5800084,6.38817799 12.9014849,6.34056171 L13,6.33333333 Z M7.10204541,0.341143819 L7.18295094,0.359544001 C7.18557875,0.360304673 7.18819987,0.36108108 7.1908142,0.361873112 C7.21361232,0.367895772 7.23565128,0.375751668 7.2573096,0.384800857 C7.26604759,0.38968114 7.27428995,0.393384566 7.28244143,0.397248479 C7.31894341,0.412940687 7.35475061,0.433822883 7.38877037,0.458301107 L7.47140452,0.528595479 L10.4714045,3.52859548 C10.731754,3.78894501 10.731754,4.21105499 10.4714045,4.47140452 C10.2370899,4.7057191 9.8717494,4.72915055 9.61122963,4.54169889 L9.52859548,4.47140452 L7.66333333,2.60633333 L7.6639,9.66666667 C7.6639,10.0348565 7.36542317,10.3333333 6.99723333,10.3333333 C6.6625153,10.3333333 6.38541132,10.0866583 6.33779505,9.76518178 L6.33056667,9.66666667 L6.33033333,2.61133333 L4.47140452,4.47140452 C4.23708995,4.7057191 3.8717494,4.72915055 3.61122963,4.54169889 L3.52859548,4.47140452 C3.2942809,4.23708995 3.27084945,3.8717494 3.45830111,3.61122963 L3.52859548,3.52859548 L6.49079953,0.566427047 C6.52491505,0.526615823 6.56364353,0.490874114 6.60615655,0.460030326 L6.52859548,0.528595479 C6.55520263,0.50198833 6.58349927,0.478100372 6.61314007,0.456931607 C6.69187213,0.399258101 6.78433718,0.359899341 6.88440472,0.342841394 C6.89776492,0.341041818 6.91079407,0.3391628 6.92385894,0.337669489 C6.94768686,0.334702067 6.97230026,0.333333333 6.99723333,0.333333333 C7.03412298,0.333333333 7.06824595,0.335936829 7.10204541,0.341143819 Z"></path>
                        </g>
                    </g>
                </g>
            </g>
        </g>
    </g>
</svg>
